<svg xmlns="http://www.w3.org/2000/svg" xmlns:xlink="http://www.w3.org/1999/xlink" version="1.1" x="0px" y="0px" viewBox="0 0 48 60" enable-background="new 0 0 48 48" xml:space="preserve"><g><g><polyline fill="none" stroke="#444444" stroke-width="2" stroke-linecap="round" stroke-linejoin="round" stroke-miterlimit="10" points="    17.355,17.195 24.063,11.522 28.307,13.039   "/><polyline fill="none" stroke="#444444" stroke-width="2" stroke-linecap="round" stroke-linejoin="round" stroke-miterlimit="10" points="    36.755,16.057 47,19.718 27.176,39.489 3.3,29.08 8.262,24.885   "/><path fill="none" stroke="#444444" stroke-width="2" stroke-linecap="round" stroke-linejoin="round" stroke-miterlimit="10" d="    M3.3,29.08c-1.77,0.567-4.62,5.767,1.07,8.162c6.805,2.864,23,9.758,23,9.758l17.903-17.937"/><path fill="none" stroke="#444444" stroke-width="2" stroke-linecap="round" stroke-linejoin="round" stroke-miterlimit="10" d="    M44.132,22.681c0,0-2.223,4.124,0.112,7.414"/><path fill="none" stroke="#444444" stroke-width="2" stroke-linecap="round" stroke-linejoin="round" stroke-miterlimit="10" d="    M27.064,40.057c0,0-2.224,3.599,0.111,6.473"/></g><g><g><ellipse fill="none" stroke="#444444" stroke-width="2" stroke-linecap="round" stroke-miterlimit="10" cx="10.706" cy="19.059" rx="7.018" ry="5.852"/><ellipse fill="none" stroke="#444444" stroke-width="2" stroke-linecap="round" stroke-miterlimit="10" cx="30.395" cy="19.059" rx="7.018" ry="5.852"/></g><path fill="none" stroke="#444444" stroke-width="2" stroke-linecap="round" stroke-miterlimit="10" d="M17.186,16.138    c0,0,3.411-2.673,7.129,0"/><path fill="none" stroke="#444444" stroke-width="2" stroke-linecap="round" stroke-miterlimit="10" d="M4.672,15.795    l6.499-13.762c0,0,1.88-2.325,4.779,0"/><path fill="none" stroke="#444444" stroke-width="2" stroke-linecap="round" stroke-miterlimit="10" d="M36.306,15.795    L29.808,2.034c0,0-1.881-2.325-4.78,0"/></g></g></svg>